HIERARCHY
ROOT hip
{
  OFFSET 0 0 0
  CHANNELS 6 Xposition Yposition Zposition Zrotation Yrotation Xrotation
  JOINT abdomen
  {
    OFFSET 0 20.6881 -0.73152
    CHANNELS 3 Zrotation Xrotation Yrotation
    JOINT chest
    {
      OFFSET 0 11.7043 -0.48768
      CHANNELS 3 Zrotation Xrotation Yrotation
      JOINT neck
      {
        OFFSET 0 22.1894 -2.19456
        CHANNELS 3 Zrotation Xrotation Yrotation
        JOINT head
        {
          OFFSET -0.24384 7.07133 1.2192
          CHANNELS 3 Zrotation Xrotation Yrotation
          JOINT leftEye
          {
            OFFSET 4.14528 8.04674 8.04672
            CHANNELS 3 Zrotation Xrotation Yrotation
            End Site
            {
              OFFSET 1 0 0
            }
          }
          JOINT rightEye
          {
            OFFSET -3.6576 8.04674 8.04672
            CHANNELS 3 Zrotation Xrotation Yrotation
            End Site
            {
              OFFSET 1 0 0
            }
          }
        }
      }
      JOINT rCollar
      {
        OFFSET -2.68224 19.2634 -4.8768
        CHANNELS 3 Zrotation Xrotation Yrotation
        JOINT rShldr
        {
          OFFSET -8.77824 -1.95073 1.46304
          CHANNELS 3 Zrotation Xrotation Yrotation
          JOINT rForeArm
          {
            OFFSET -28.1742 -1.7115 0.48768
            CHANNELS 3 Zrotation Xrotation Yrotation
            JOINT rHand
            {
              OFFSET -22.5879 0.773209 7.07136
              CHANNELS 3 Zrotation Xrotation Yrotation
              JOINT rThumb1
              {
                OFFSET -1.2192 -0.487915 3.41376
                CHANNELS 3 Zrotation Xrotation Yrotation
                JOINT rThumb2
                {
                  OFFSET -3.37035 -0.52449 3.41376
                  CHANNELS 3 Zrotation Xrotation Yrotation
                  End Site
                  {
                    OFFSET -1.78271 -1.18214 1.43049
                  }
                }
              }
              JOINT rIndex1
              {
                OFFSET -7.75947 0.938293 5.60832
                CHANNELS 3 Zrotation Xrotation Yrotation
                JOINT rIndex2
                {
                  OFFSET -2.54057 -0.884171 1.56538
                  CHANNELS 3 Zrotation Xrotation Yrotation
                  End Site
                  {
                    OFFSET -1.62519 -0.234802 1.16502
                  }
                }
              }
              JOINT rMid1
              {
                OFFSET -8.24714 1.18213 3.41376
                CHANNELS 3 Zrotation Xrotation Yrotation
                JOINT rMid2
                {
                  OFFSET -3.10165 -0.590103 1.0647
                  CHANNELS 3 Zrotation Xrotation Yrotation
                  End Site
                  {
                    OFFSET -2.48547 -0.328903 0.83742
                  }
                }
              }
              JOINT rRing1
              {
                OFFSET -8.82822 0.546677 1.51678
                CHANNELS 3 Zrotation Xrotation Yrotation
                JOINT rRing2
                {
                  OFFSET -2.60934 -0.819778 -0.0198488
                  CHANNELS 3 Zrotation Xrotation Yrotation
                  End Site
                  {
                    OFFSET -2.33842 -0.294052 0.168128
                  }
                }
              }
              JOINT rPinky1
              {
                OFFSET -8.27202 -0.0477905 -0.4584
                CHANNELS 3 Zrotation Xrotation Yrotation
                JOINT rPinky2
                {
                  OFFSET -1.82734 -0.647385 -0.700984
                  CHANNELS 3 Zrotation Xrotation Yrotation
                  End Site
                  {
                    OFFSET -1.69225 -0.51767 -0.607171
                  }
                }
              }
            }
          }
        }
      }
      JOINT lCollar
      {
        OFFSET 2.68224 19.2634 -4.8768
        CHANNELS 3 Zrotation Xrotation Yrotation
        JOINT lShldr
        {
          OFFSET 8.77824 -1.95073 1.46304
          CHANNELS 3 Zrotation Xrotation Yrotation
          JOINT lForeArm
          {
            OFFSET 28.1742 -1.7115 0.48768
            CHANNELS 3 Zrotation Xrotation Yrotation
            JOINT lHand
            {
              OFFSET 22.5879 0.773209 7.07136
              CHANNELS 3 Zrotation Xrotation Yrotation
              JOINT lThumb1
              {
                OFFSET 1.2192 -0.487915 3.41376
                CHANNELS 3 Zrotation Xrotation Yrotation
                JOINT lThumb2
                {
                  OFFSET 3.37035 -0.52449 3.41376
                  CHANNELS 3 Zrotation Xrotation Yrotation
                  End Site
                  {
                    OFFSET 1.78271 -1.18214 1.43049
                  }
                }
              }
              JOINT lIndex1
              {
                OFFSET 7.75947 0.938293 5.60832
                CHANNELS 3 Zrotation Xrotation Yrotation
                JOINT lIndex2
                {
                  OFFSET 2.54057 -0.884171 1.56538
                  CHANNELS 3 Zrotation Xrotation Yrotation
                  End Site
                  {
                    OFFSET 1.62519 -0.234802 1.16502
                  }
                }
              }
              JOINT lMid1
              {
                OFFSET 8.24714 1.18213 3.41376
                CHANNELS 3 Zrotation Xrotation Yrotation
                JOINT lMid2
                {
                  OFFSET 3.10165 -0.590103 1.0647
                  CHANNELS 3 Zrotation Xrotation Yrotation
                  End Site
                  {
                    OFFSET 2.48547 -0.328903 0.83742
                  }
                }
              }
              JOINT lRing1
              {
                OFFSET 8.82822 0.546677 1.51678
                CHANNELS 3 Zrotation Xrotation Yrotation
                JOINT lRing2
                {
                  OFFSET 2.60934 -0.819778 -0.0198488
                  CHANNELS 3 Zrotation Xrotation Yrotation
                  End Site
                  {
                    OFFSET 2.33842 -0.294052 0.168128
                  }
                }
              }
              JOINT lPinky1
              {
                OFFSET 8.27202 -0.0477905 -0.4584
                CHANNELS 3 Zrotation Xrotation Yrotation
                JOINT lPinky2
                {
                  OFFSET 1.82734 -0.647385 -0.700984
                  CHANNELS 3 Zrotation Xrotation Yrotation
                  End Site
                  {
                    OFFSET 1.69225 -0.51767 -0.607171
                  }
                }
              }
            }
          }
        }
      }
    }
  }
  JOINT rButtock
  {
    OFFSET -8.77824 4.35084 1.2192
    CHANNELS 3 Zrotation Xrotation Yrotation
    JOINT rThigh
    {
      OFFSET 0 -1.70687 -2.19456
      CHANNELS 3 Zrotation Xrotation Yrotation
      JOINT rShin
      {
        OFFSET 0 -36.8199 0.73152
        CHANNELS 3 Zrotation Xrotation Yrotation
        JOINT rFoot
        {
          OFFSET 0.73152 -45.1104 -5.12064
          CHANNELS 3 Zrotation Xrotation Yrotation
          End Site
          {
            OFFSET -1.1221 -3.69964 12.103
          }
        }
      }
    }
  }
  JOINT lButtock
  {
    OFFSET 8.77824 4.35084 1.2192
    CHANNELS 3 Zrotation Xrotation Yrotation
    JOINT lThigh
    {
      OFFSET 0 -1.70687 -2.19456
      CHANNELS 3 Zrotation Xrotation Yrotation
      JOINT lShin
      {
        OFFSET 0 -36.8199 0.73152
        CHANNELS 3 Zrotation Xrotation Yrotation
        JOINT lFoot
        {
          OFFSET -0.73152 -45.1104 -5.12064
          CHANNELS 3 Zrotation Xrotation Yrotation
          End Site
          {
            OFFSET 1.1221 -3.69964 12.103
          }
        }
      }
    }
  }
}
MOTION
Frames:	4
Frame Time:	0.03333
-25.330900593678265 77.78269970210378 -118.60699991845846 -2.155099868774414 3.0525996685028076 3.1678998470306396 -3.296409845352173 6.16925048828125 3.2992396354675293 2.2553200721740723 -6.790290355682373 0.985722005367279 -5.822409629821777 9.81326961517334 -4.529869556427002 7.33991003036499 -13.899699211120605 -7.343850135803223 -0.0 0.0 -0.0 -0.0 0.0 -0.0 -4.577510042563272e-14 2.0326299779611923e-13 8.460499824596707e-14 42.45960235595703 39.372901916503906 54.29459762573242 -19.637897491455078 -12.563000679016113 37.80779266357422 -0.7154519557952881 -23.296802520751953 -3.4694998264312744 2.9152300018431276e-10 -7.903929732933079e-10 1.1418699319420966e-10 5.023789717562011e-10 -1.390540016465991e-09 2.0339101236555024e-10 2.915249985857571e-10 -7.90405962902696e-10 1.1419199613671438e-10 7.730909824371338 5.474879741668701 0.4173140823841095 2.91521973228015e-10 -7.904009668990852e-10 1.1418899853454789e-10 2.9055399894714355 0.9651829600334167 0.10290199518203735 2.915299945893679e-10 -7.903979692969187e-10 1.1419098999709831e-10 10.27859878540039 0.73180091381073 0.025912316516041756 2.9151797642512634e-10 -7.903970256073478e-10 1.1420000362027949e-10 2.221669912338257 -0.733487069606781 -0.208919957280159 -4.595109693141322e-14 2.0326299779611923e-13 8.423540050163034e-14 -49.38209915161133 45.670291900634766 -62.913997650146484 17.4064998626709 -10.059599876403809 -32.69949722290039 1.0229101181030273 -27.449501037597656 4.186520099639893 1.061309998218185e-10 -2.087970019104546e-09 -6.367889548997141e-10 1.971469931749681e-10 -3.570250095563665e-09 -1.1009000377981693e-09 1.0613299822326283e-10 -2.0879598050527193e-09 -6.367829596953811e-10 -7.730909824371338 5.474879741668701 -0.4173140823841095 1.0613498968581325e-10 -2.0879500350901026e-09 -6.367929517026027e-10 -2.9055399894714355 0.9651829600334167 -0.10290199518203735 1.0612899448148028e-10 -2.0879598050527193e-09 -6.367929517026027e-10 -10.27859878540039 0.73180091381073 -0.025912316516041756 1.0613299822326283e-10 -2.0879598050527193e-09 -6.368039984216978e-10 -2.221669912338257 -0.733487069606781 0.208919957280159 -2.0321699480147914e-16 0.0 -3.8825099822884138e-19 3.8503098487854004 -34.945491790771484 -2.028170108795166 -0.9554688930511475 58.42500686645508 1.4916000366210938 0.09007089585065842 -22.2372989654541 0.3722670078277588 2.0321699480147914e-16 0.0 3.8825099822884138e-19 -6.397830009460449 -35.44969940185547 -2.555220127105713 0.945248007774353 58.98889923095703 -1.6067999601364136 4.61299991607666 -21.697498321533203 8.968300819396973
-25.333499480657455 77.72029909384655 -118.52300225204564 -2.140399932861328 3.067199468612671 3.1361000537872314 -3.2592697143554688 6.127129554748535 3.278470277786255 2.2414398193359375 -6.742819786071777 0.9782921671867371 -5.811010837554932 9.763669967651367 -4.514999866485596 7.305219650268555 -13.790499687194824 -7.321752071380615 -0.0 0.0 -0.0 -0.0 0.0 -0.0 -3.505079933978708e-14 3.572359760979117e-14 4.7178400238139656e-14 42.41149139404297 39.410499572753906 54.36920166015625 -19.597299575805664 -12.51360034942627 37.710899353027344 -0.7158690094947815 -23.303102493286133 -3.47055983543396 -4.8152298121051373e-11 9.189739524906315e-10 -1.4926600233611254e-10 -7.931799661520245e-11 1.5949198628462113e-09 -2.599200021879966e-10 -4.8148499076638984e-11 9.189529692754661e-10 -1.492670015368347e-10 7.730909824371338 5.474879741668701 0.4173140823841095 -4.8152499348974587e-11 9.18939979666078e-10 -1.4925000124677013e-10 2.9055399894714355 0.9651829600334167 0.10290199518203735 -4.8142500402859056e-11 9.189529692754661e-10 -1.4925999325399175e-10 10.27859878540039 0.73180091381073 0.025912316516041756 -4.8163896482211754e-11 9.189659588848542e-10 -1.4925499725038094e-10 2.221669912338257 -0.733487069606781 -0.208919957280159 -3.525799715121264e-14 3.5726098051051466e-14 4.67745993033928e-14 -49.54829788208008 45.659706115722656 -62.797401428222656 17.399198532104492 -10.054198265075684 -32.68519973754883 1.0165899991989136 -27.3727970123291 4.172800064086914 3.576219875789377e-10 -2.6744798042876994e-10 -3.5732197756210837e-10 6.247219963562145e-10 -4.175039758358423e-10 -6.106960492857638e-10 3.5762098837821554e-10 -2.674439836258813e-10 -3.57316010113351e-10 -7.730909824371338 5.474879741668701 -0.4173140823841095 3.5762598438182636e-10 -2.674329646623619e-10 -3.5732197756210837e-10 -2.9055399894714355 0.9651829600334167 -0.10290199518203735 3.5761901773234683e-10 -2.674409860237148e-10 -3.573269735657192e-10 -10.27859878540039 0.73180091381073 -0.025912316516041756 3.576249851811042e-10 -2.6743998682299264e-10 -3.573429885328494e-10 -2.221669912338257 -0.733487069606781 0.208919957280159 -2.0321699480147914e-16 0.0 -3.8825099822884138e-19 3.8269400596618652 -34.94499588012695 -2.0766401290893555 -0.9632489681243896 58.568603515625 1.5015898942947388 0.050645194947719574 -22.334102630615234 0.292326956987381 2.0321699480147914e-16 0.0 3.8825099822884138e-19 -6.375129699707031 -35.446502685546875 -2.5045599937438965 0.9536709785461426 59.13640594482422 -1.6168198585510254 4.6310601234436035 -21.825101852416992 8.966511726379395
-25.341099773656385 77.66489942948859 -118.43599930239802 -2.1294000148773193 3.0286002159118652 3.1026997566223145 -3.2604901790618896 6.092609882354736 3.2761900424957275 2.244570016860962 -6.713200092315674 0.9766719937324524 -5.80748987197876 9.705809593200684 -4.5082197189331055 7.298470497131348 -13.635700225830078 -7.313190937042236 -0.0 0.0 -0.0 -0.0 0.0 -0.0 -2.0314899393768238e-14 -5.3822499571348076e-14 1.7471299675552408e-14 42.38540267944336 39.467994689941406 54.4036979675293 -19.570600509643555 -12.481201171875 37.64759826660156 -0.7172760367393494 -23.324399948120117 -3.4741101264953613 -1.8232999832168417e-10 2.345079908039338e-09 -3.9599601375783777e-10 -3.058649999942986e-10 4.073289705530669e-09 -6.902010074583131e-10 -1.8232600151879552e-10 2.345059924024895e-09 -3.9600098200587297e-10 7.730909824371338 5.474879741668701 0.4173140823841095 -1.8232999832168417e-10 2.3450399400104516e-09 -3.9597999879070755e-10 2.9055399894714355 0.9651829600334167 0.10290199518203735 -1.8231900711374038e-10 2.345059924024895e-09 -3.9599296064452005e-10 10.27859878540039 0.73180091381073 0.025912316516041756 -1.8234198873035012e-10 2.3450699160321165e-09 -3.959869931957627e-10 2.221669912338257 -0.733487069606781 -0.208919957280159 -2.044969791106018e-14 -5.382009738590966e-14 1.71094997165281e-14 -49.71560287475586 45.665897369384766 -62.66819763183594 17.38850212097168 -10.044400215148926 -32.662696838378906 1.0107200145721436 -27.30120086669922 4.160008907318115 4.5444301099983875e-10 1.1215900430627812e-09 -7.164999843434217e-11 7.847659189152978e-10 1.9759101022032155e-09 -1.133000013253671e-10 4.5443998564209664e-10 1.1215900430627812e-09 -7.164449589147637e-11 -7.730909824371338 5.474879741668701 -0.4173140823841095 4.544459808464296e-10 1.1216000350700028e-09 -7.16521980637097e-11 -2.9055399894714355 0.9651829600334167 -0.10290199518203735 4.544389864413745e-10 1.1215900430627812e-09 -7.165650017793013e-11 -10.27859878540039 0.73180091381073 -0.025912316516041756 4.5444795149229833e-10 1.1215900430627812e-09 -7.16711967552186e-11 -2.221669912338257 -0.733487069606781 0.208919957280159 -2.0321699480147914e-16 0.0 -3.8825099822884138e-19 3.831690549850464 -34.91849899291992 -2.062580108642578 -0.9704487323760986 58.703407287597656 1.5117099285125732 -0.014147398993372917 -22.42840003967285 0.16301898658275604 2.0321699480147914e-16 0.0 3.8825099822884138e-19 -6.330320358276367 -35.42009735107422 -2.4018006324768066 0.9613680243492126 59.269100189208984 -1.6257297992706299 4.635280132293701 -21.961502075195312 8.934919357299805
-25.344600245606017 77.61270312385135 -118.33999416342432 -2.119500160217285 3.025200366973877 3.059199810028076 -3.3000597953796387 6.065709114074707 3.292409658432007 2.2646994590759277 -6.701450347900391 0.9808580279350281 -5.811890602111816 9.639699935913086 -4.509530067443848 7.319759845733643 -13.435500144958496 -7.318209171295166 -0.0 0.0 -0.0 -0.0 0.0 -0.0 -1.5674599857616188e-15 -6.537519549147663e-14 -4.5161399644358564e-15 42.38119888305664 39.54559326171875 54.397891998291016 -19.55820083618164 -12.465999603271484 37.61779022216797 -0.7196789383888245 -23.360700607299805 -3.4801599979400635 -1.1101000674251793e-10 3.4879097388085256e-09 -6.260009732805827e-10 -1.7726098366921406e-10 6.044569733631988e-09 -1.0874500189217429e-09 -1.1100699526256363e-10 3.4879097388085256e-09 -6.260099660870821e-10 7.730909824371338 5.474879741668701 0.4173140823841095 -1.1100900060290186e-10 3.487899968845909e-09 -6.26002971682027e-10 2.9055399894714355 0.9651829600334167 0.10290199518203735 -1.1099899471789243e-10 3.4879197308157472e-09 -6.260070239960669e-10 10.27859878540039 0.73180091381073 0.025912316516041756 -1.1101699420867917e-10 3.4879097388085256e-09 -6.259949780762497e-10 2.221669912338257 -0.733487069606781 -0.208919957280159 -1.5262300217793053e-15 -6.537519549147663e-14 -4.759959668852428e-15 -49.884300231933594 45.68899917602539 -62.52609634399414 17.374500274658203 -10.03020191192627 -32.632102966308594 1.0052900314331055 -27.234601974487305 4.148139476776123 3.965939798789009e-10 2.0791499633077137e-09 2.2022698942247843e-10 6.772789551412473e-10 3.6099998546035295e-09 3.9129000040105666e-10 3.9658998307601223e-10 2.079139749255887e-09 2.2022998702464491e-10 -7.730909824371338 5.474879741668701 -0.4173140823841095 3.965939798789009e-10 2.0791599553149354e-09 2.2021799661597896e-10 -2.9055399894714355 0.9651829600334167 -0.10290199518203735 3.9658998307601223e-10 2.079139749255887e-09 2.2021898193891332e-10 -10.27859878540039 0.73180091381073 -0.025912316516041756 3.9660297268540035e-10 2.0791499633077137e-09 2.2021198753385818e-10 -2.221669912338257 -0.733487069606781 0.208919957280159 -2.0321699480147914e-16 0.0 -3.8825099822884138e-19 3.864419937133789 -34.86580276489258 -1.9860601425170898 -0.9770609140396118 58.82920455932617 1.5219398736953735 -0.1045520082116127 -22.51999855041504 -0.015752499923110008 2.0321699480147914e-16 0.0 3.8825099822884138e-19 -6.263629913330078 -35.37050247192383 -2.247069835662842 0.9683098793029785 59.38690948486328 -1.6334999799728394 4.62544059753418 -22.10670280456543 8.873459815979004
